<?xml version="1.0" encoding="UTF-8" standalone="no"?>
<!-- Created with Inkscape (http://www.inkscape.org/) -->

<svg
   version="1.1"
   id="svg9744"
   xml:space="preserve"
   width="682.66669"
   height="682.66669"
   viewBox="0 0 682.66669 682.66669"
   xmlns="http://www.w3.org/2000/svg"
   xmlns:svg="http://www.w3.org/2000/svg"><defs
     id="defs9748"><clipPath
       clipPathUnits="userSpaceOnUse"
       id="clipPath9758"><path
         d="M 0,512 H 512 V 0 H 0 Z"
         id="path9756" /></clipPath></defs><g
     id="g9750"
     transform="matrix(1.3333333,0,0,-1.3333333,0,682.66667)"><g
       id="g9752"><g
         id="g9754"
         clip-path="url(#clipPath9758)"><g
           id="g9760"
           transform="translate(246.3281,458.8418)"><path
             d="m 0,0 c 0,-8.284 -6.715,-15 -15,-15 -8.284,0 -15,6.716 -15,15 0,8.284 6.716,15 15,15 C -6.715,15 0,8.284 0,0 m 76.415,0 c 0,-8.284 -6.715,-15 -15,-15 -8.284,0 -15,6.716 -15,15 0,8.284 6.716,15 15,15 8.285,0 15,-6.716 15,-15 M 23.208,24.986 C 15.053,37.432 0.991,45.658 -15,45.658 -40.216,45.658 -60.657,25.217 -60.657,0 c 0,-25.216 20.441,-45.657 45.657,-45.657 h 14.386 v -45.864 l 23.822,-23.821 23.821,23.821 v 45.864 h 14.386 c 25.217,0 45.658,20.441 45.658,45.657 0,25.217 -20.441,45.658 -45.658,45.658 -15.99,0 -30.052,-8.226 -38.207,-20.672"
             style="fill:#ffce71;fill-opacity:1;fill-rule:nonzero;stroke:none"
             id="path9762" /></g><g
           id="g9764"
           transform="translate(453.0283,251.6475)"><path
             d="m 0,0 -21.918,-21.918 25.44,-25.44 c 18.189,-18.189 22.124,-46.167 9.817,-68.755 -29.499,-54.142 -85.03,-92.144 -149.665,-97.074 -8.058,-0.615 -14.327,-7.235 -14.327,-15.316 v -0.297 c 0,-8.971 7.659,-15.98 16.605,-15.303 75.55,5.729 140.419,50.205 174.782,113.52 18.756,34.561 12.496,77.353 -15.308,105.157 z"
             style="fill:#ffb5c0;fill-opacity:1;fill-rule:nonzero;stroke:none"
             id="path9766" /></g><g
           id="g9768"
           transform="translate(131.4883,288.0977)"><path
             d="m 0,0 c 0,-34.239 -27.756,-61.995 -61.994,-61.995 -34.238,0 -61.994,27.756 -61.994,61.995 0,34.238 27.756,61.994 61.994,61.994 C -27.756,61.994 0,34.238 0,0"
             style="fill:#676fb2;fill-opacity:1;fill-rule:nonzero;stroke:none"
             id="path9770" /></g><g
           id="g9772"
           transform="translate(302.375,380.1475)"><path
             d="m 0,0 c -28.147,0 -54.547,-7.474 -77.325,-20.544 l -62.565,-35.9 -87.493,-50.205 c -32.92,-18.89 -55.094,-54.387 -55.094,-95.063 0,-60.487 49.036,-109.523 109.524,-109.523 H -36.8 0 c 85.945,0 155.617,69.673 155.617,155.618 C 155.617,-69.673 85.945,0 0,0"
             style="fill:#9ea2e3;fill-opacity:1;fill-rule:nonzero;stroke:none"
             id="path9774" /></g><g
           id="g9776"
           transform="translate(162.4854,238.5625)"><path
             d="M 0,0 V 85.141 L -87.493,34.936 c -32.92,-18.89 -55.094,-54.387 -55.094,-95.063 0,-60.487 49.035,-109.523 109.524,-109.523 H 103.09 C 39.774,-136.787 0,-71.382 0,0"
             style="fill:#8288cb;fill-opacity:1;fill-rule:nonzero;stroke:none"
             id="path9778" /></g><g
           id="g9780"
           transform="translate(224.4805,288.0977)"><path
             d="m 0,0 c 0,-34.239 -27.756,-61.995 -61.995,-61.995 -34.238,0 -61.994,27.756 -61.994,61.995 0,34.238 27.756,61.994 61.994,61.994 C -27.756,61.994 0,34.238 0,0"
             style="fill:#8288cb;fill-opacity:1;fill-rule:nonzero;stroke:none"
             id="path9782" /></g><g
           id="g9784"
           transform="translate(162.4854,257.1006)"><path
             d="m 0,0 c -17.092,0 -30.997,13.905 -30.997,30.997 0,17.092 13.905,30.997 30.997,30.997 17.093,0 30.998,-13.905 30.998,-30.997 C 30.998,13.905 17.093,0 0,0"
             style="fill:#ff8e9e;fill-opacity:1;fill-rule:nonzero;stroke:none"
             id="path9786" /></g><g
           id="g9788"
           transform="translate(107.0566,174.125)"><path
             d="m 0,0 c -16.212,0 -29.354,-10.467 -29.354,-23.377 0,-12.911 13.142,-23.377 29.354,-23.377 16.212,0 29.354,10.466 29.354,23.377 C 29.354,-10.467 16.212,0 0,0"
             style="fill:#ffb5c0;fill-opacity:1;fill-rule:nonzero;stroke:none"
             id="path9790" /></g><g
           id="g9792"
           transform="translate(27.5,179.9922)"><path
             d="M 0,0 C -11.046,0 -20,-6.32 -20,-14.117 -20,-21.914 -11.046,-32 0,-32 11.046,-32 20,-21.914 20,-14.117 20,-6.32 11.046,0 0,0"
             style="fill:#ffb5c0;fill-opacity:1;fill-rule:nonzero;stroke:none"
             id="path9794" /></g><g
           id="g9796"
           transform="translate(302.375,76.4121)"><path
             d="m 0,0 h -172.953 c -42.153,0 -79.976,26.298 -95.074,64.99 12.04,3.233 20.652,14.535 20.652,24.473 0,12.036 -11.91,21.478 -27.176,21.611 2.957,32.943 21.91,62.871 50.901,79.507 l 15.373,8.821 c 1.413,-7.86 4.167,-15.455 8.177,-22.405 2.072,-3.587 6.658,-4.816 10.246,-2.747 3.587,2.071 4.817,6.657 2.747,10.245 -20.705,35.875 5.08,81.685 47.218,81.685 41.87,0 68.103,-45.596 47.189,-81.736 -2.075,-3.585 -0.851,-8.173 2.734,-10.248 3.591,-2.077 8.177,-0.845 10.248,2.735 16.911,29.222 10.186,65.989 -15.122,87.628 29.78,17.309 53.686,31.676 94.84,31.676 81.672,0 148.117,-66.445 148.117,-148.117 C 148.117,66.445 81.672,0 0,0 m -274.875,96.081 c 7.631,0 12.5,-3.92 12.5,-6.618 0,-3.463 -5.404,-10.382 -12.5,-10.382 -7.096,0 -12.5,6.919 -12.5,10.382 0,2.698 4.869,6.618 12.5,6.618 m -12.5,115.605 c 0,30.047 24.446,54.494 54.494,54.494 13.539,0 26.532,-5.067 36.499,-14.063 -7.554,-10.541 -12.005,-22.988 -12.841,-35.963 l -21.892,-12.563 c -14.797,-8.491 -27.312,-20.005 -36.949,-33.496 -12.202,10.295 -19.311,25.372 -19.311,41.591 M 181.383,155.113 160.77,175.727 C 147.63,252.472 80.438,311.85 -1.518,311.219 v 18.052 h 6.886 c 29.312,0 53.158,23.847 53.158,53.159 0,29.311 -23.846,53.158 -53.158,53.158 -14.587,0 -28.285,-5.921 -38.207,-16.201 -9.922,10.28 -23.62,16.201 -38.208,16.201 -29.31,0 -53.157,-23.847 -53.157,-53.158 0,-9.176 2.378,-18.224 6.877,-26.165 2.041,-3.605 6.619,-4.871 10.222,-2.829 3.604,2.041 4.871,6.618 2.829,10.221 -3.224,5.692 -4.928,12.183 -4.928,18.773 0,21.04 17.117,38.158 38.157,38.158 12.905,0 24.844,-6.461 31.935,-17.282 2.958,-4.512 9.585,-4.518 12.547,0 7.09,10.821 19.029,17.282 31.933,17.282 21.04,0 38.158,-17.118 38.158,-38.158 0,-21.04 -17.118,-38.159 -38.158,-38.159 H -9.018 c -4.142,0 -7.5,-3.357 -7.5,-7.5 v -26.297 c -12.034,-1.138 -22.718,-3.507 -32.643,-6.759 v 33.056 c 0,4.143 -3.358,7.5 -7.5,7.5 -14.951,0 -20.547,-0.677 -29.232,2.995 -3.81,1.612 -8.213,-0.172 -9.828,-3.989 -1.612,-3.814 0.173,-8.215 3.989,-9.828 11.168,-4.72 19.548,-4.178 27.571,-4.178 v -31.318 c -15.131,-6.641 -29.032,-15.117 -44.603,-24.141 -9.628,4.831 -20.298,7.368 -31.125,7.368 -17.248,0 -33.796,-6.444 -46.496,-17.883 -12.701,11.439 -29.248,17.883 -46.496,17.883 -38.319,0 -69.494,-31.175 -69.494,-69.494 0,-21.434 9.725,-41.307 26.322,-54.441 -8.099,-15.114 -12.905,-32.011 -13.763,-49.54 -7.606,-3.806 -12.559,-10.483 -12.559,-18.242 0,-9.228 7.426,-19.629 18.127,-23.658 C -269.221,19.719 -225.849,-15 -172.953,-15 H 0 c 76.551,0 140.941,53.01 158.424,124.246 7.389,-14.977 6.694,-32.374 -1.018,-46.536 C 128.137,8.99 74.437,-25.845 13.757,-30.474 2.27,-31.35 -7.5,-40.849 -7.5,-53.564 c 0,-12.599 10.277,-22.848 22.91,-22.848 10.365,0 40.584,4.156 69.909,16.213 3.831,1.575 5.66,5.957 4.085,9.788 -1.575,3.832 -5.959,5.659 -9.788,4.085 -20.27,-8.333 -41.661,-13.401 -63.575,-15.063 -10.574,-0.773 -11.758,15.15 -1.144,15.958 32.573,2.486 64.234,13.308 91.562,31.297 26.686,17.567 48.857,41.657 64.12,69.669 12.942,23.763 10.282,53.75 -8.434,74.801 0.777,7.143 1.106,14.356 0.92,21.881 l 7.71,-7.711 c 26.239,-26.236 30.704,-65.531 14.02,-96.277 -18.437,-33.971 -45.837,-62.232 -79.236,-81.726 -3.579,-2.088 -4.786,-6.681 -2.698,-10.258 2.088,-3.577 6.68,-4.785 10.258,-2.697 35.771,20.878 65.114,51.144 84.86,87.527 7.619,14.039 11.646,29.895 11.646,45.851 0,25.759 -10.03,49.974 -28.242,68.187"
             style="fill:#000000;fill-opacity:1;fill-rule:nonzero;stroke:none"
             id="path9798" /></g><g
           id="g9800"
           transform="translate(231.3281,466.3418)"><path
             d="M 0,0 C 4.136,0 7.5,-3.364 7.5,-7.5 7.5,-11.636 4.136,-15 0,-15 c -4.136,0 -7.5,3.364 -7.5,7.5 0,4.136 3.364,7.5 7.5,7.5 m 0,-30 c 12.406,0 22.5,10.094 22.5,22.5 C 22.5,4.906 12.406,15 0,15 -12.406,15 -22.5,4.906 -22.5,-7.5 -22.5,-19.906 -12.406,-30 0,-30"
             style="fill:#000000;fill-opacity:1;fill-rule:nonzero;stroke:none"
             id="path9802" /></g><g
           id="g9804"
           transform="translate(307.7441,466.3418)"><path
             d="M 0,0 C 4.135,0 7.499,-3.364 7.499,-7.5 7.499,-11.636 4.135,-15 0,-15 c -4.136,0 -7.501,3.364 -7.501,7.5 0,4.136 3.365,7.5 7.501,7.5 m 0,-30 c 12.406,0 22.499,10.094 22.499,22.5 C 22.499,4.906 12.406,15 0,15 -12.407,15 -22.501,4.906 -22.501,-7.5 -22.501,-19.906 -12.407,-30 0,-30"
             style="fill:#000000;fill-opacity:1;fill-rule:nonzero;stroke:none"
             id="path9806" /></g><g
           id="g9808"
           transform="translate(89.9482,192.752)"><path
             d="m 0,0 c -4.143,0 -7.5,-3.357 -7.5,-7.5 v -12 c 0,-4.143 3.357,-7.5 7.5,-7.5 4.143,0 7.5,3.357 7.5,7.5 v 12 C 7.5,-3.357 4.143,0 0,0"
             style="fill:#000000;fill-opacity:1;fill-rule:nonzero;stroke:none"
             id="path9810" /></g><g
           id="g9812"
           transform="translate(162.4863,264.5996)"><path
             d="m 0,0 c -12.957,0 -23.498,10.541 -23.498,23.498 0,12.956 10.541,23.496 23.498,23.496 12.956,0 23.496,-10.54 23.496,-23.496 C 23.496,10.541 12.956,0 0,0 m 0,61.994 c -21.228,0 -38.498,-17.269 -38.498,-38.496 C -38.498,2.271 -21.228,-15 0,-15 21.227,-15 38.496,2.271 38.496,23.498 38.496,44.725 21.227,61.994 0,61.994"
             style="fill:#000000;fill-opacity:1;fill-rule:nonzero;stroke:none"
             id="path9814" /></g></g></g></g></svg>
