<svg id="Layer_3" height="512" viewBox="0 0 64 64" width="512" xmlns="http://www.w3.org/2000/svg" data-name="Layer 3"><path d="m27.929 29h14.142v2h-14.142z" fill="#fcd0ae" transform="matrix(.707 -.707 .707 .707 -10.962 33.536)"/><path d="m7 40h2v7h-2z" fill="#e2e7f6"/><path d="m45 26h6v30h-6z" fill="#fcd0ae"/><path d="m16 40h6v16h-6z" fill="#fcd0ae"/><path d="m9 21h6v13h-6z" fill="#fcd0ae"/><path d="m2 14v4c0 2.209 4.477 4 10 4s10-1.791 10-4v-4" fill="#474747"/><path d="m3 16c0 2.209 4.477 4 10 4 3.967 0 7.383-.926 9-2.265v-3.735h-19z" fill="#686868"/><rect fill="#474747" height="6" rx="3" width="60" x="2" y="56"/><path d="m59 56h-54a3 3 0 0 0 3 3h54a3 3 0 0 0 -3-3z" fill="#686868"/><rect fill="#474747" height="6" rx="2" width="30" x="4" y="34"/><rect fill="#f4a93c" height="24" rx="2" width="28" x="34" y="2"/><path d="m36 2h24a2 2 0 0 1 2 2v20a2 2 0 0 1 -2 2h-4a22 22 0 0 1 -22-22 2 2 0 0 1 2-2z" fill="#f6b940"/><path d="m55.463 12.853-1.463-5.853-3.744 2.246a10.415 10.415 0 0 0 -5.07.143l-3.186-2.389-1.463 5.853a4.68 4.68 0 0 0 -.537 2.147c0 3.314 3.582 6 8 6s8-2.686 8-6a4.68 4.68 0 0 0 -.537-2.147z" fill="#f9d266"/><ellipse cx="12" cy="14" fill="#f6b940" rx="10" ry="4"/><path d="m3.03 15.76c1.629 1.325 5.028 2.24 8.97 2.24 5.32 0 9.658-1.663 9.97-3.76-1.629-1.326-5.028-2.24-8.97-2.24-5.32 0-9.658 1.663-9.97 3.76z" fill="#f4a93c"/><g fill="#f2b9a1"><path d="m45 30h6v2h-6z"/><path d="m45 34h6v2h-6z"/><path d="m45 38h6v2h-6z"/><path d="m45 42h6v2h-6z"/><path d="m45 46h6v2h-6z"/><path d="m45 50h6v2h-6z"/><path d="m16 43h6v2h-6z"/><path d="m16 47h6v2h-6z"/><path d="m16 51h6v2h-6z"/></g><circle cx="8" cy="48" fill="#f4a93c" r="2"/><path d="m8 46a1.99 1.99 0 0 0 -.82.18 1.992 1.992 0 0 0 2.64 2.64 1.992 1.992 0 0 0 -1.82-2.82z" fill="#f6b940"/><path d="m32 34h-26a1.986 1.986 0 0 0 -1.35.533 11.961 11.961 0 0 0 8.433 3.467h20.917v-2a2 2 0 0 0 -2-2z" fill="#686868"/><path d="m54 7-3.744 2.246a10.415 10.415 0 0 0 -5.07.143l-3.186-2.389-.316 1.264a19.73 19.73 0 0 0 12.133 10.847 5.3 5.3 0 0 0 2.183-4.111 4.68 4.68 0 0 0 -.537-2.147z" fill="#fce797"/><path d="m60 27a3 3 0 0 0 3-3v-20a3 3 0 0 0 -3-3h-24a3 3 0 0 0 -3 3v20a3 3 0 0 0 3 3h.586l-6 6h-14.586v-10.331c3.829-.648 7-2.24 7-4.669v-4c0-3.248-5.667-5-11-5s-11 1.752-11 5v4c0 2.429 3.171 4.021 7 4.669v10.331h-2a3 3 0 0 0 -3 3v2a3 3 0 0 0 3 3h1v4.184a3 3 0 1 0 2 0v-4.184h6v14h-10a4 4 0 0 0 0 8h54a4 4 0 0 0 0-8h-7v-28zm-52 22a1 1 0 1 1 1-1 1 1 0 0 1 -1 1zm27-25v-20a1 1 0 0 1 1-1h24a1 1 0 0 1 1 1v20a1 1 0 0 1 -1 1h-24a1 1 0 0 1 -1-1zm15 26h-4v-2h4zm-27 5v-6.17c2.346 1.429 6.434 2.17 10.5 2.17s8.154-.741 10.5-2.17v6.17zm-6-10h4v2h-4zm0 4h4v2h-4zm33-3h-4v-2h4zm0-4h-4v-2h4zm0-4h-4v-2h4zm0-4h-4v-2h4zm-6-7v19c0 1.019-3.706 3-10.5 3s-10.5-1.981-10.5-3v-5h9a3 3 0 0 0 3-3v-2a3 3 0 0 0 -1.826-2.76l6.24-6.24zm-32-16c5.494 0 9 1.776 9 3s-3.506 3-9 3-9-1.776-9-3 3.506-3 9-3zm-9 7v-1.042c2.122 1.342 5.626 2.042 9 2.042s6.878-.7 9-2.042v1.042c0 1.224-3.506 3-9 3s-9-1.776-9-3zm7 4.919c.664.054 1.335.081 2 .081s1.336-.027 2-.081v10.081h-4zm-5 15.081v-2a1 1 0 0 1 1-1h26a1 1 0 0 1 1 1v2a1 1 0 0 1 -1 1h-26a1 1 0 0 1 -1-1zm16 3v2h-4v-2zm-4 12h4v2h-4zm44 6a2 2 0 0 1 -2 2h-54a2 2 0 0 1 0-4h54a2 2 0 0 1 2 2zm-15-4v-3h4v3zm4-25h-4v-3h4z"/><path d="m54.97 6.758a1 1 0 0 0 -1.485-.615l-3.411 2.046a11.441 11.441 0 0 0 -4.674.111l-2.8-2.1a1 1 0 0 0 -1.57.558l-1.437 5.742a5.648 5.648 0 0 0 -.593 2.5c0 3.859 4.038 7 9 7s9-3.141 9-7a5.648 5.648 0 0 0 -.593-2.5zm-6.97 13.242c-3.86 0-7-2.243-7-5a3.7 3.7 0 0 1 .427-1.692 1.071 1.071 0 0 0 .08-.213l1.1-4.391 1.98 1.485a1 1 0 0 0 .873.163 9.453 9.453 0 0 1 4.583-.129 1.007 1.007 0 0 0 .73-.119l2.586-1.552 1.134 4.548a1.071 1.071 0 0 0 .08.213 3.7 3.7 0 0 1 .427 1.687c0 2.757-3.14 5-7 5z"/></svg>