<?xml version="1.0" encoding="UTF-8" standalone="no"?>
<!-- Created with Inkscape (http://www.inkscape.org/) -->

<svg
   version="1.1"
   id="svg6351"
   xml:space="preserve"
   width="682.66669"
   height="682.66669"
   viewBox="0 0 682.66669 682.66669"
   xmlns="http://www.w3.org/2000/svg"
   xmlns:svg="http://www.w3.org/2000/svg"><defs
     id="defs6355"><clipPath
       clipPathUnits="userSpaceOnUse"
       id="clipPath6365"><path
         d="M 0,512 H 512 V 0 H 0 Z"
         id="path6363" /></clipPath></defs><g
     id="g6357"
     transform="matrix(1.3333333,0,0,-1.3333333,0,682.66667)"><g
       id="g6359"><g
         id="g6361"
         clip-path="url(#clipPath6365)"><g
           id="g6367"
           transform="translate(410.6094,47.5996)"><path
             d="m 0,0 -154.604,-20 -164.615,20 -1.907,8.113 c -31.613,134.472 -30.959,274.516 1.907,408.687 v 10e-4 l 164.61,20 154.609,-20 1.211,-5.074 C 33.282,277.415 33.13,137.423 0.767,3.181 Z"
             style="fill:#6b95d6;fill-opacity:1;fill-rule:nonzero;stroke:none"
             id="path6369" /></g><g
           id="g6371"
           transform="translate(421.8203,459.3262)"><path
             d="M 0,0 -1.211,5.074 -31.948,8.809 -30,0 C 2.071,-134.312 1.919,-274.304 -30.444,-408.545 l -1.513,-6.917 30.746,3.735 0.767,3.182 C 31.919,-274.304 32.071,-134.312 0,0"
             style="fill:#2571b6;fill-opacity:1;fill-rule:nonzero;stroke:none"
             id="path6373" /></g><g
           id="g6375"
           transform="translate(91.3906,464.4004)"><path
             d="m 0,0 h 51.041 l 7.5,10 7.5,-10 h 55.712 l 7.5,10 7.5,-10 h 55.713 l 7.5,10 7.5,-10 h 55.712 l 7.5,10 7.5,-10 h 41.041 l 6.902,27.68 c 1.574,6.31 -3.199,12.42 -9.702,12.42 H 2.8 c -6.503,0 -11.277,-6.11 -9.702,-12.42 z"
             style="fill:#ffe187;fill-opacity:1;fill-rule:nonzero;stroke:none"
             id="path6377" /></g><g
           id="g6379"
           transform="translate(410.6094,47.5996)"><path
             d="m 0,0 h -41.041 l -7.5,-10 -7.5,10 h -55.712 l -7.5,-10 -7.5,10 h -55.713 l -7.5,-10 -7.5,10 h -55.712 l -7.5,-10 -7.5,10 h -51.041 l -6.902,-27.68 c -1.574,-6.31 3.199,-12.42 9.702,-12.42 H -2.8 c 6.503,0 11.277,6.11 9.702,12.42 z"
             style="fill:#ffe187;fill-opacity:1;fill-rule:nonzero;stroke:none"
             id="path6381" /></g><g
           id="g6383"
           transform="translate(427.5117,19.9199)"><path
             d="m 0,0 -6.902,27.68 h -30 L -30,0 c 1.574,-6.311 -3.199,-12.42 -9.702,-12.42 h 30 C -3.199,-12.42 1.574,-6.311 0,0"
             style="fill:#ffc344;fill-opacity:1;fill-rule:nonzero;stroke:none"
             id="path6385" /></g><g
           id="g6387"
           transform="translate(387.4639,278.4453)"><path
             d="m 0,0 c 0,-72.605 -58.858,-131.464 -131.464,-131.464 -72.605,0 -131.464,58.859 -131.464,131.464 0,72.605 58.859,131.464 131.464,131.464 C -58.858,131.464 0,72.605 0,0"
             style="fill:#ffe187;fill-opacity:1;fill-rule:nonzero;stroke:none"
             id="path6389" /></g><g
           id="g6391"
           transform="translate(417.8096,504.5)"><path
             d="m 0,0 h -30 c 6.503,0 11.276,-6.109 9.702,-12.42 L -27.2,-40.1 h 30 l 6.902,27.68 C 11.276,-6.109 6.503,0 0,0"
             style="fill:#ffc344;fill-opacity:1;fill-rule:nonzero;stroke:none"
             id="path6393" /></g><g
           id="g6395"
           transform="translate(332.1182,284.6748)"><path
             d="m 0,0 c -12.667,17.516 -33.261,28.92 -56.529,28.92 -23.212,0 -43.763,-11.35 -56.438,-28.793 l 0.028,-12.197 c 12.677,-17.423 33.214,-28.755 56.41,-28.755 23.268,0 43.862,11.404 56.529,28.919 C 2.578,-8.342 2.578,-3.563 0,0"
             style="fill:#eef5f6;fill-opacity:1;fill-rule:nonzero;stroke:none"
             id="path6397" /></g><g
           id="g6399"
           transform="translate(182.9482,324.166)"><path
             d="m 0,0 h 11.178 c 13.807,0 25,-11.192 25,-25 v -20.444 l -8.836,-10 -7.342,10 c -13.807,0 -25,11.193 -25,25 V -5 c 0,2.762 2.238,5 5,5"
             style="fill:#eef5f6;fill-opacity:1;fill-rule:nonzero;stroke:none"
             id="path6401" /></g><g
           id="g6403"
           transform="translate(202.9482,278.7217)"><path
             d="m 0,0 h 16.178 v -20.443 c 0,-13.808 -11.193,-25 -25,-25 H -20 c -2.762,0 -5,2.238 -5,5 V -25 c 0,13.808 11.193,25 25,25"
             style="fill:#deecf1;fill-opacity:1;fill-rule:nonzero;stroke:none"
             id="path6405" /></g><g
           id="g6407"
           transform="translate(91.3857,464.4004)"><path
             d="m 0,0 h 329.219 l 6.903,27.68 c 1.573,6.31 -3.2,12.42 -9.703,12.42 H 2.801 c -6.504,0 -11.277,-6.11 -9.703,-12.42 z"
             style="fill:none;stroke:#000000;stroke-width:15;stroke-linecap:round;stroke-linejoin:round;stroke-miterlimit:10;stroke-dasharray:none;stroke-opacity:1"
             id="path6409" /></g><g
           id="g6411"
           transform="translate(149.9268,479.4502)"><path
             d="M 0,0 V -15.05"
             style="fill:none;stroke:#000000;stroke-width:15;stroke-linecap:round;stroke-linejoin:round;stroke-miterlimit:10;stroke-dasharray:none;stroke-opacity:1"
             id="path6413" /></g><g
           id="g6415"
           transform="translate(220.6396,479.4502)"><path
             d="M 0,0 V -15.05"
             style="fill:none;stroke:#000000;stroke-width:15;stroke-linecap:round;stroke-linejoin:round;stroke-miterlimit:10;stroke-dasharray:none;stroke-opacity:1"
             id="path6417" /></g><g
           id="g6419"
           transform="translate(291.3516,479.4502)"><path
             d="M 0,0 V -15.05"
             style="fill:none;stroke:#000000;stroke-width:15;stroke-linecap:round;stroke-linejoin:round;stroke-miterlimit:10;stroke-dasharray:none;stroke-opacity:1"
             id="path6421" /></g><g
           id="g6423"
           transform="translate(362.0635,479.4502)"><path
             d="M 0,0 V -15.05"
             style="fill:none;stroke:#000000;stroke-width:15;stroke-linecap:round;stroke-linejoin:round;stroke-miterlimit:10;stroke-dasharray:none;stroke-opacity:1"
             id="path6425" /></g><g
           id="g6427"
           transform="translate(149.9268,47.5996)"><path
             d="M 0,0 V -15.05"
             style="fill:none;stroke:#000000;stroke-width:15;stroke-linecap:round;stroke-linejoin:round;stroke-miterlimit:10;stroke-dasharray:none;stroke-opacity:1"
             id="path6429" /></g><g
           id="g6431"
           transform="translate(220.6396,47.5996)"><path
             d="M 0,0 V -15.05"
             style="fill:none;stroke:#000000;stroke-width:15;stroke-linecap:round;stroke-linejoin:round;stroke-miterlimit:10;stroke-dasharray:none;stroke-opacity:1"
             id="path6433" /></g><g
           id="g6435"
           transform="translate(291.3516,47.5996)"><path
             d="M 0,0 V -15.05"
             style="fill:none;stroke:#000000;stroke-width:15;stroke-linecap:round;stroke-linejoin:round;stroke-miterlimit:10;stroke-dasharray:none;stroke-opacity:1"
             id="path6437" /></g><g
           id="g6439"
           transform="translate(362.0635,47.5996)"><path
             d="M 0,0 V -15.05"
             style="fill:none;stroke:#000000;stroke-width:15;stroke-linecap:round;stroke-linejoin:round;stroke-miterlimit:10;stroke-dasharray:none;stroke-opacity:1"
             id="path6441" /></g><g
           id="g6443"
           transform="translate(161.2041,102.0908)"><path
             d="M 0,0 H 189.583"
             style="fill:none;stroke:#000000;stroke-width:15;stroke-linecap:round;stroke-linejoin:round;stroke-miterlimit:10;stroke-dasharray:none;stroke-opacity:1"
             id="path6445" /></g><g
           id="g6447"
           transform="translate(202.9434,278.7217)"><path
             d="m 0,0 h 16.179 v -20.443 c 0,-13.808 -11.194,-25 -25,-25 H -20 c -2.761,0 -5,2.238 -5,5 V -25 c 0,13.808 11.193,25 25,25 z"
             style="fill:none;stroke:#000000;stroke-width:15;stroke-linecap:round;stroke-linejoin:round;stroke-miterlimit:10;stroke-dasharray:none;stroke-opacity:1"
             id="path6449" /></g><g
           id="g6451"
           transform="translate(294.9355,274.3408)"><path
             d="M 0,0 V 0 C -4.142,0 -7.5,3.357 -7.5,7.5 -7.5,11.642 -4.142,15 0,15 4.143,15 7.5,11.642 7.5,7.5 7.5,3.357 4.143,0 0,0"
             style="fill:#000000;fill-opacity:1;fill-rule:nonzero;stroke:none"
             id="path6453" /></g><g
           id="g6455"
           transform="translate(219.1738,272.6045)"><path
             d="m 0,0 c 12.678,-17.423 33.215,-28.755 56.41,-28.755 23.269,0 43.862,11.403 56.53,28.919 2.578,3.565 2.578,8.343 -0.001,11.906 C 100.272,29.586 79.679,40.99 56.41,40.99 33.198,40.99 12.647,29.641 -0.027,12.197"
             style="fill:none;stroke:#000000;stroke-width:15;stroke-linecap:round;stroke-linejoin:round;stroke-miterlimit:10;stroke-dasharray:none;stroke-opacity:1"
             id="path6457" /></g><g
           id="g6459"
           transform="translate(202.9434,278.7217)"><path
             d="m 0,0 c -13.807,0 -25,11.193 -25,25 v 15.444 c 0,2.762 2.239,5 5,5 h 11.179 c 13.806,0 25,-11.192 25,-25 L 16.179,0"
             style="fill:none;stroke:#000000;stroke-width:15;stroke-linecap:round;stroke-linejoin:round;stroke-miterlimit:10;stroke-dasharray:none;stroke-opacity:1"
             id="path6461" /></g><g
           id="g6463"
           transform="translate(386.8301,265.498)"><path
             d="m 0,0 c -6.504,-66.528 -62.598,-118.517 -130.835,-118.517 -72.605,0 -131.464,58.859 -131.464,131.464 0,72.606 58.859,131.464 131.464,131.464 65.897,0 120.47,-48.483 129.992,-111.724"
             style="fill:none;stroke:#000000;stroke-width:15;stroke-linecap:round;stroke-linejoin:round;stroke-miterlimit:10;stroke-dasharray:none;stroke-opacity:1"
             id="path6465" /></g><g
           id="g6467"
           transform="translate(91.3857,47.5996)"><path
             d="m 0,0 -1.907,8.113 c -24.24,103.115 -29.509,209.505 -15.829,314.012"
             style="fill:none;stroke:#000000;stroke-width:15;stroke-linecap:round;stroke-linejoin:round;stroke-miterlimit:10;stroke-dasharray:none;stroke-opacity:1"
             id="path6469" /></g><g
           id="g6471"
           transform="translate(313.7061,47.5996)"><path
             d="m 0,0 h -222.32 l -6.903,-27.68 c -1.573,-6.31 3.2,-12.42 9.703,-12.42 h 323.619 c 6.503,0 11.276,6.11 9.703,12.42 L 106.898,0 H 32.687"
             style="fill:none;stroke:#000000;stroke-width:15;stroke-linecap:round;stroke-linejoin:round;stroke-miterlimit:10;stroke-dasharray:none;stroke-opacity:1"
             id="path6473" /></g><g
           id="g6475"
           transform="translate(420.6045,464.4004)"><path
             d="M 0,0 1.212,-5.074 C 33.282,-139.386 33.13,-279.378 0.767,-413.62 L 0,-416.801"
             style="fill:none;stroke:#000000;stroke-width:15;stroke-linecap:round;stroke-linejoin:round;stroke-miterlimit:10;stroke-dasharray:none;stroke-opacity:1"
             id="path6477" /></g><g
           id="g6479"
           transform="translate(78.4004,401.4824)"><path
             d="m 0,0 c 3.551,21.086 7.88,42.072 12.985,62.917 v 10e-4"
             style="fill:none;stroke:#000000;stroke-width:15;stroke-linecap:round;stroke-linejoin:round;stroke-miterlimit:10;stroke-dasharray:none;stroke-opacity:1"
             id="path6481" /></g></g></g></g></svg>
