<svg xmlns="http://www.w3.org/2000/svg" version="1.1" xmlns:xlink="http://www.w3.org/1999/xlink" width="512" height="512" x="0" y="0" viewBox="0 0 512 512" style="enable-background:new 0 0 512 512" xml:space="preserve"><g><path d="M283.775 188.493a46.421 46.421 0 0 0-7.513 54.491l.864 1.6a46.2 46.2 0 0 0 40.737 24.492 46.715 46.715 0 0 0 18.5-3.847l13.4-5.771a34.363 34.363 0 0 1 28.753.707l11.649 5.711a46.515 46.515 0 0 0 54.664-73.262l-42.647-45.5a53.69 53.69 0 0 0-77.795-.613zM363 142.122a41.865 41.865 0 0 1 30.434 13.2l42.593 45.448a34.515 34.515 0 0 1-40.572 54.339L383.8 249.4a46.341 46.341 0 0 0-38.782-.955l-13.4 5.772A34.252 34.252 0 0 1 287.69 238.9l-.865-1.6a34.467 34.467 0 0 1 5.576-40.456l40.616-41.992A41.924 41.924 0 0 1 363 142.122zM321.929 117.889c18.687 0 33.89-19.753 33.89-44.032s-15.2-44.033-33.89-44.033-33.889 19.753-33.889 44.033 15.202 44.032 33.889 44.032zm0-76.065c11.866 0 21.89 14.669 21.89 32.033s-10.024 32.032-21.89 32.032S300.04 91.22 300.04 73.857s10.024-32.033 21.889-32.033zM404.58 114.385c18.687 0 33.889-19.753 33.889-44.032S423.267 26.32 404.58 26.32s-33.891 19.753-33.891 44.033 15.204 44.032 33.891 44.032zm0-76.065c11.865 0 21.889 14.669 21.889 32.033s-10.024 32.032-21.889 32.032-21.891-14.669-21.891-32.032S392.714 38.32 404.58 38.32zM457.021 162.688a24.6 24.6 0 0 0 7.606 1.2 28.429 28.429 0 0 0 12.967-3.3c9.839-5.033 17.781-15.049 21.792-27.48 6.97-21.608-.685-43.5-17.065-48.8-6.6-2.138-13.713-1.411-20.572 2.1-9.839 5.033-17.782 15.049-21.792 27.48-6.971 21.602.685 43.496 17.064 48.8zm-5.644-45.122c3-9.284 8.915-16.94 15.836-20.48a16.818 16.818 0 0 1 7.537-1.969 12.516 12.516 0 0 1 3.875.6c9.92 3.212 14.2 18.647 9.34 33.705-2.995 9.284-8.915 16.94-15.836 20.48-2.762 1.414-6.985 2.8-11.411 1.365-9.918-3.208-14.198-18.643-9.341-33.701zM249.374 162.323A28.857 28.857 0 0 0 261.228 165a24.668 24.668 0 0 0 8.8-1.612c16.095-6.117 22.649-28.367 14.609-49.6-4.625-12.215-13.057-21.821-23.134-26.355-7.025-3.162-14.168-3.53-20.653-1.065-16.094 6.116-22.648 28.366-14.609 49.6 4.624 12.215 13.059 21.821 23.133 26.355zm-4.263-64.737a12.647 12.647 0 0 1 4.515-.814 17.208 17.208 0 0 1 6.952 1.606c7.087 3.19 13.381 10.539 16.835 19.661 5.6 14.8 2.1 30.427-7.65 34.132-4.348 1.653-8.636.481-11.465-.792-7.089-3.189-13.382-10.539-16.836-19.66-5.603-14.797-2.1-30.427 7.649-34.133zM71.018 403.551a46.422 46.422 0 0 0-7.515 54.49l.866 1.606a46.189 46.189 0 0 0 59.24 20.645l13.4-5.771a34.363 34.363 0 0 1 28.753.707l11.649 5.711a46.515 46.515 0 0 0 54.664-73.263l-42.647-45.5a53.692 53.692 0 0 0-77.795-.613zm79.221-46.37a41.865 41.865 0 0 1 30.433 13.2l42.594 45.447a34.516 34.516 0 0 1-40.573 54.341l-11.649-5.712a46.344 46.344 0 0 0-38.782-.954l-13.4 5.772a34.255 34.255 0 0 1-43.929-15.316l-.866-1.606a34.464 34.464 0 0 1 5.577-40.455l40.614-41.998a41.935 41.935 0 0 1 29.981-12.719zM109.172 332.948c18.687 0 33.89-19.753 33.89-44.033s-15.2-44.032-33.89-44.032-33.89 19.753-33.89 44.032 15.203 44.033 33.89 44.033zm0-76.065c11.865 0 21.89 14.669 21.89 32.032s-10.025 32.033-21.89 32.033-21.89-14.67-21.89-32.033 10.025-32.032 21.89-32.032zM191.822 329.443c18.687 0 33.889-19.753 33.889-44.032s-15.2-44.033-33.889-44.033-33.89 19.753-33.89 44.033 15.203 44.032 33.89 44.032zm0-76.065c11.865 0 21.889 14.67 21.889 32.033s-10.024 32.032-21.889 32.032-21.89-14.669-21.89-32.032 10.025-32.033 21.89-32.033zM286.628 348.169c6.97-21.607-.685-43.5-17.065-48.805-6.6-2.138-13.713-1.412-20.572 2.1-9.839 5.032-17.782 15.048-21.792 27.48-6.97 21.607.685 43.5 17.065 48.806a24.588 24.588 0 0 0 7.6 1.2 28.413 28.413 0 0 0 12.967-3.3c9.844-5.033 17.787-15.05 21.797-27.481zm-38.668 18.162c-9.92-3.213-14.2-18.648-9.34-33.706 2.994-9.284 8.914-16.94 15.835-20.48a16.821 16.821 0 0 1 7.537-1.969 12.528 12.528 0 0 1 3.874.6c9.921 3.213 14.2 18.648 9.341 33.705-3 9.285-8.915 16.941-15.835 20.481-2.764 1.417-6.986 2.801-11.412 1.369zM36.616 377.381a28.841 28.841 0 0 0 11.854 2.677 24.637 24.637 0 0 0 8.8-1.612c16.094-6.116 22.648-28.366 14.608-49.6-4.625-12.215-13.056-21.821-23.133-26.356-7.027-3.162-14.169-3.53-20.653-1.065-16.092 6.119-22.65 28.369-14.61 49.601 4.625 12.215 13.057 21.821 23.134 26.355zm-4.262-64.736a12.621 12.621 0 0 1 4.515-.814 17.181 17.181 0 0 1 6.95 1.606c7.089 3.189 13.382 10.539 16.836 19.661 5.6 14.8 2.1 30.426-7.65 34.131-4.348 1.653-8.635.481-11.465-.791-7.088-3.189-13.382-10.539-16.835-19.661-5.605-14.796-2.105-30.427 7.649-34.132z" fill="#343a40" opacity="1" data-original="#000000"></path></g></svg>