<svg id="Layer_1" enable-background="new 0 0 512 512" height="512" viewBox="0 0 512 512" width="512" xmlns="http://www.w3.org/2000/svg"><g clip-rule="evenodd" fill-rule="evenodd"><circle cx="256" cy="256" fill="#3b4366" r="225"/><g fill="#efefef"><path d="m256 15c66.548 0 126.799 26.976 170.411 70.588 43.614 43.614 70.589 103.864 70.589 170.412s-26.975 126.799-70.588 170.411c-43.613 43.614-103.864 70.589-170.412 70.589s-126.798-26.975-170.411-70.588-70.589-103.864-70.589-170.412 26.976-126.798 70.589-170.411 103.863-70.589 170.411-70.589zm147.786 93.214c-37.82-37.821-90.071-61.214-147.786-61.214s-109.966 23.393-147.786 61.214c-37.821 37.82-61.214 90.071-61.214 147.786s23.393 109.966 61.214 147.786c37.82 37.821 90.071 61.214 147.786 61.214s109.966-23.393 147.786-61.214c37.821-37.82 61.214-90.071 61.214-147.786s-23.393-109.966-61.214-147.786z"/><path d="m256 250.897c42.011 0 77.115 38.121 85.627 88.99 2.281 13.632-1.786 26.567-11.228 35.712-9.443 9.146-21.595 11.919-33.551 7.658-26.246-9.353-55.45-9.353-81.696 0-11.956 4.261-24.109 1.487-33.551-7.658-9.441-9.145-13.509-22.08-11.228-35.712 8.512-50.869 43.616-88.99 85.627-88.99zm-136.93-35.251c14.33-4.086 30.433 8.335 35.967 27.745 5.534 19.408-1.596 38.455-15.926 42.542-14.33 4.086-30.433-8.336-35.967-27.745s1.597-38.456 15.926-42.542zm273.86 0c-14.33-4.086-30.433 8.335-35.968 27.744-5.534 19.409 1.596 38.456 15.926 42.542s30.433-8.336 35.967-27.745c5.535-19.408-1.595-38.455-15.925-42.541zm-189.457-88.858c17.772 0 32.18 21.048 32.18 47.01 0 25.963-14.407 47.01-32.18 47.01-17.772 0-32.179-21.047-32.179-47.01-.001-25.962 14.407-47.01 32.179-47.01zm105.054 0c17.772 0 32.18 21.048 32.18 47.01 0 25.963-14.408 47.01-32.18 47.01s-32.18-21.047-32.18-47.01c0-25.962 14.408-47.01 32.18-47.01z"/></g></g></svg>