<svg id="Outline" height="512" viewBox="0 0 512 512" width="512" xmlns="http://www.w3.org/2000/svg"><path d="m286.483 189.336c1.93.707 5.575.588 9.134.217 4.647-.484 6.432-5.361 3.195-8.731-2.478-2.581-5.186-5.024-7.115-5.731-4.551-1.665-9.406.174-10.846 4.107s1.082 8.473 5.632 10.138z"/><path d="m198.229 189.553c3.558.371 7.2.49 9.133-.217 4.55-1.665 7.072-6.2 5.632-10.138s-6.3-5.772-10.846-4.107c-1.929.707-4.637 3.15-7.115 5.731-3.233 3.37-1.452 8.247 3.196 8.731z"/><path d="m324.8 278.756-28.416-8.482a6 6 0 1 0 -3.432 11.5l28.416 8.482a6 6 0 0 0 3.432-11.5z"/><path d="m294.381 251.433a6 6 0 0 0 .282 11.993c.1 0 .194 0 .292-.007l32.054-1.535a6 6 0 0 0 -.574-11.987z"/><path d="m197.462 270.274-28.416 8.482a6 6 0 1 0 3.431 11.5l28.416-8.482a6 6 0 1 0 -3.431-11.5z"/><path d="m166.836 261.884 32.054 1.535c.1 0 .2.007.292.007a6 6 0 0 0 .283-11.993l-32.055-1.533a6 6 0 0 0 -.574 11.987z"/><path d="m247.039 421.345a32.61 32.61 0 1 0 32.611 32.61 32.647 32.647 0 0 0 -32.611-32.61zm0 12a20.627 20.627 0 0 1 18.133 10.823h-36.266a20.629 20.629 0 0 1 18.133-10.823zm8.714 39.266a8.968 8.968 0 1 0 -17.678-.112 20.653 20.653 0 0 1 -11.523-16.331h40.974a20.647 20.647 0 0 1 -11.773 16.443z"/><path d="m236.954 269.813a8.329 8.329 0 0 1 -4.592 1.187c-1.3 0-1.679-.3-3.272-1.73-2.13-1.912-5.349-4.8-11.285-4.8a6 6 0 0 0 0 12c1.3 0 1.68.3 3.272 1.731.209.187.432.385.663.588v8.33a25.183 25.183 0 1 0 50.366 0v-8.333c.229-.2.451-.4.659-.585 1.594-1.429 1.976-1.731 3.275-1.731a6 6 0 0 0 0-12c-5.937 0-9.156 2.886-11.287 4.8-1.594 1.428-1.976 1.731-3.275 1.731a8.358 8.358 0 0 1 -4.6-1.186 23.237 23.237 0 0 0 -3.952-1.639v-13.744c1.374-.77 3.024-1.678 5.021-2.749 10.365-5.56 2.485-21.634-9.195-12.309a2.933 2.933 0 0 1 -3.661 0c-11.68-9.325-19.559 6.749-9.2 12.309 2 1.074 3.655 1.983 5.03 2.754v13.731a23.212 23.212 0 0 0 -3.967 1.645zm23.152 13.138v4.168a13.183 13.183 0 1 1 -26.366 0v-4.168a19.917 19.917 0 0 0 8.583-2.406 8.294 8.294 0 0 1 3.8-1.164 6.07 6.07 0 0 0 .8.059 5.935 5.935 0 0 0 .794-.058 8.34 8.34 0 0 1 3.792 1.164 19.954 19.954 0 0 0 8.597 2.405z"/><path d="m301.329 238.794c8.033 0 29.371 0 29.371-16.492 0-12.5-13.725-23.467-29.371-23.467s-29.37 10.966-29.37 23.467c0 16.492 21.341 16.492 29.37 16.492zm17.371-16.494c0 .861 0 1.837-2.887 2.882a21.953 21.953 0 0 1 -3.929.951 12.965 12.965 0 0 0 1.85-11.428c3.071 2.207 4.966 5.032 4.966 7.595zm-29.775-7.6a12.967 12.967 0 0 0 1.85 11.429 21.965 21.965 0 0 1 -3.93-.951c-2.886-1.045-2.886-2.021-2.886-2.882 0-2.559 1.894-5.384 4.966-7.59z"/><path d="m192.516 238.794c8.033 0 29.37 0 29.37-16.492 0-12.5-13.724-23.467-29.37-23.467s-29.371 10.965-29.371 23.465c0 16.494 21.338 16.494 29.371 16.494zm17.37-16.492c0 .861 0 1.837-2.886 2.882a21.965 21.965 0 0 1 -3.93.951 12.967 12.967 0 0 0 1.85-11.429c3.072 2.206 4.966 5.031 4.966 7.594zm-29.775-7.595a12.965 12.965 0 0 0 1.85 11.428 21.953 21.953 0 0 1 -3.929-.951c-2.887-1.045-2.887-2.021-2.887-2.882 0-2.565 1.895-5.39 4.966-7.595z"/><path d="m479.629 338.5a17.18 17.18 0 0 0 -16.24-21.4c-.319-.008-.644-.011-.964-.011-16.352 0-31.322 9.223-43.728 20.914 1.149-21.182-2.113-43.381-16.3-58.215a16.857 16.857 0 0 0 -1.971-1.734c6.4-35.852-7.062-75.652-20.153-107.333a148.6 148.6 0 0 0 -12.373-23.453c10.894-54.864-5.3-92.857-16.063-110.75a20.807 20.807 0 0 0 -26.944-7.991c-12.269 6.122-34.463 20.834-49.187 51.672-9.191-1.691-18.247-2.156-28.782-2.156s-19.592.465-28.783 2.156c-14.724-30.838-36.918-45.55-49.187-51.672a20.8 20.8 0 0 0 -26.943 7.991c-10.762 17.893-26.958 55.886-16.064 110.75a148.509 148.509 0 0 0 -12.374 23.444c-14.717 35.615-29.931 81.5-16.838 120.49 6.633 19.752 20.235 39.847 38.293 57.005a50.1 50.1 0 0 0 4.212 17.016c-56.45 48.364-74.278 102.692-79.458 124.951a14.163 14.163 0 0 0 13.8 17.373h346.682a14.162 14.162 0 0 0 13.8-17.373 207.287 207.287 0 0 0 -14.585-40.995 17.33 17.33 0 0 0 10.931-12.929 31.265 31.265 0 0 0 .416-8.982 94.412 94.412 0 0 0 12.307.855c10.091 0 18.786-1.945 25.842-5.783a17.176 17.176 0 0 0 5.109-25.891c-6.029-7.481-14.666-12.466-25.785-14.907 14.017-11.407 26.975-26.012 31.33-43.042zm-149.379-299.234a8.64 8.64 0 0 1 11.3 3.435c9.108 15.144 22.454 46.066 16.49 90.8a177.31 177.31 0 0 0 -13.287-14.978c3.82-27.406-4.717-49.618-8.268-54.376a7.29 7.29 0 0 0 -9.13-2.147c-13.811 6.943-21.963 18.98-25.824 26.124a139.47 139.47 0 0 0 -13.88-5.035c13.158-26.057 32.038-38.554 42.599-43.823zm3.372 69.015a139.866 139.866 0 0 0 -21.316-14.863c2.732-4.972 8.011-12.823 16.378-18.347 2.371 6.122 5.516 18.457 4.938 33.21zm-181.329-65.581a8.64 8.64 0 0 1 11.3-3.435c10.561 5.269 29.441 17.766 42.6 43.82a139.47 139.47 0 0 0 -13.88 5.035c-3.86-7.143-12.013-19.18-25.825-26.12a7.3 7.3 0 0 0 -9.132 2.15c-3.549 4.755-12.086 26.967-8.266 54.373a177.642 177.642 0 0 0 -13.29 14.977c-5.961-44.733 7.386-75.655 16.493-90.8zm29.228 50.728a139.713 139.713 0 0 0 -21.3 14.852c-.579-14.751 2.567-27.085 4.935-33.206 8.31 5.504 13.611 13.371 16.365 18.355zm-73.411 193.954c-11.827-35.221 2.633-78.4 16.552-112.088 13.241-32.044 43.607-64.036 72.2-76.07a117 117 0 0 1 18.887-6.287c.136-.025.272-.057.407-.092 9.816-2.254 19.17-2.8 30.763-2.8s20.94.548 30.752 2.8c.141.037.282.07.423.1a116.932 116.932 0 0 1 18.882 6.285c28.6 12.034 58.962 44.026 72.2 76.07 12.274 29.7 24.96 66.791 19.68 99.293a17.093 17.093 0 0 0 -11.061 5.192c-14.187 14.836-17.448 37.032-16.3 58.217-12.405-11.691-27.373-20.915-43.725-20.916-.323 0-.644 0-.967.011a17.18 17.18 0 0 0 -16.24 21.4c2.492 9.749 7.808 18.7 14.521 26.71-20.417 10.952-43.708 17.8-68.17 17.8-65.899-.001-123.361-49.637-138.804-95.625zm203.463 103.563c-18.088 9.374-40.7 14.48-64.65 14.48-27.2 0-52.693-6.581-71.773-18.531-11.613-7.274-19.89-15.96-24.367-25.342 20.526 15.467 53.552 33.454 96.14 33.454 31.034 0 56.984-9.555 76.728-20.724 2.668 2.543 5.435 4.968 8.25 7.259a47.354 47.354 0 0 0 -20.328 9.404zm110.391 103.783a2.135 2.135 0 0 1 -1.7.819h-346.683a2.163 2.163 0 0 1 -2.112-2.653c4.851-20.843 21.455-71.412 73.871-117.084 5.661 7.859 13.538 15.051 23.441 21.253 20.963 13.13 48.715 20.362 78.142 20.362a162.035 162.035 0 0 0 55.4-9.4 17.282 17.282 0 0 0 .294 2.631 17.067 17.067 0 0 0 8.6 11.681c7.055 3.837 15.75 5.782 25.841 5.782a94.415 94.415 0 0 0 12.308-.855 31.263 31.263 0 0 0 .356 8.662 17.371 17.371 0 0 0 16.791 14.338h.274c6.814 0 12.372-2.908 16.96-6.861.83 9.151 3.82 19.8 12.522 25.526a6 6 0 0 0 6.594-10.026c-4.453-2.929-6.355-9.51-7.026-15.938a29.467 29.467 0 0 0 10.236 6.12 198.891 198.891 0 0 1 16.293 43.8 2.129 2.129 0 0 1 -.402 1.843zm-9.948-103.563a1.158 1.158 0 0 0 .526 2.175 1.27 1.27 0 0 0 .209-.017 113.293 113.293 0 0 1 17.925-1.534c12.453 0 26.293 2.547 34.065 12.19a5.179 5.179 0 0 1 -1.5 7.819c-5.83 3.171-12.9 4.325-20.109 4.325-12.146 0-24.686-3.278-32.335-5.718a1.229 1.229 0 0 0 -.373-.06 1.16 1.16 0 0 0 -.735 2.03c4.961 4.438 10.786 11.921 8.933 21.624a5.222 5.222 0 0 1 -5.068 4.269h-.154c-8.538 0-15.246-10.311-20.157-17.443a3.655 3.655 0 0 0 -6.43-.024c-4.954 7.133-11.471 17.467-20.02 17.467h-.128a5.365 5.365 0 0 1 -5.128-4.472c-1.734-9.6 4.038-17.009 8.964-21.416a1.163 1.163 0 0 0 -.737-2.034 1.22 1.22 0 0 0 -.373.06c-7.652 2.44-20.184 5.716-32.327 5.716-7.208 0-14.28-1.155-20.109-4.325a5.179 5.179 0 0 1 -1.5-7.819c7.773-9.644 21.611-12.19 34.065-12.19a113.279 113.279 0 0 1 17.924 1.534 1.291 1.291 0 0 0 .21.017 1.158 1.158 0 0 0 .526-2.175c-15.3-8.274-49.243-29.259-55.987-55.643a5.181 5.181 0 0 1 4.881-6.434c.234 0 .466-.008.7-.008 26.335 0 50.463 33.015 60.334 48.505a1.109 1.109 0 0 0 .953.542 1.154 1.154 0 0 0 1.138-1.466c-5.29-19.471-15.023-66.319 6.273-88.588a5.013 5.013 0 0 1 7.249 0c21.3 22.269 11.563 69.117 6.273 88.588a1.154 1.154 0 0 0 1.137 1.466 1.109 1.109 0 0 0 .954-.542c9.871-15.491 34-48.508 60.334-48.5.231 0 .467 0 .7.008a5.181 5.181 0 0 1 4.881 6.43c-6.741 26.384-40.687 47.369-55.984 55.643z"/></svg>