<svg id="Layer_1" enable-background="new 0 0 500 500" viewBox="0 0 500 500" xmlns="http://www.w3.org/2000/svg"><path clip-rule="evenodd" d="m69.591 96.25 80.163-.813 16.025 23.703c.179.264.369.507.581.739 40.958 45.145 48.894 63.193 49.591 70.216-1.156 2.666-2.571 4.356-4.192 5.006-2.228.887-5.719.253-10.08-1.827-8.248-5.628-15.054-10.534-20.534-14.483-15.65-11.289-22.14-15.956-28.793-12.54-6.59 3.385-6.574 10.951-6.531 29.236.026 9.367.053 21.02-.665 36.085-.063 1.378.306 2.735 1.051 3.897 19.077 29.395 32.89 52.987 41.08 70.121 9.541 19.975 9.103 26.337 8.76 27.795-.491.053-1.515.053-3.337-.375-59.233-25.678-92.73-73.521-102.388-146.25-1.797-36.621-8.767-66.998-20.731-90.51zm-23.117-12.931-.459-32.462 110.699-1.119.459 32.457-3.944.042c-.005 0-.026 0-.032 0zm141.524 261.991c.306.132.623.238.945.327 2.513.649 4.699.919 6.621.919 5.903 0 9.23-2.614 11.083-5.185 6.505-9.024 5.127-28.798-48.25-111.295.634-14.415.607-26.037.591-34.627-.01-5.961-.026-12.071.29-15.756 3.327 1.959 8.633 5.787 14.167 9.779 5.634 4.066 12.646 9.119 21.221 14.954.259.169.528.327.803.47 8.11 3.981 15.228 4.8 21.168 2.429 5.449-2.175 9.531-6.822 12.129-13.818.264-.713.407-1.478.407-2.244.053-9.251-5.365-27.589-52.744-79.884l-11.009-16.28c1.177-.29 2.265-.908 3.136-1.79 1.22-1.246 1.895-2.941 1.869-4.689l-.639-45.626c-.048-3.622-3.031-6.51-6.648-6.484l-123.866 1.246c-1.742.016-3.411.734-4.641 1.985-1.22 1.251-1.896 2.936-1.869 4.694l.638 45.626c.042 3.596 2.989 6.484 6.579 6.484h.069l14.642-.148c13.084 22.514 20.651 53.187 22.494 91.262.011.19.026.37.042.549 10.159 76.986 47.426 129.84 110.772 157.102zm222.828 105.017h-222.928v-37.553c0-20.677 16.823-37.494 37.5-37.494h147.934c20.677 0 37.495 16.817 37.495 37.494v37.553zm-169.672-118.999c4.599-3.701 11.917-4.219 21.759-1.526 2.598.702 4.414 1.32 5.74 1.764 5.539 1.869 8.559 1.848 12.905-3.2.956-1.119 2.271-2.645 4.588-4.821 5.212-4.889 10.75-7.191 16.437-6.848 7.144.433 14.494 4.942 21.269 13.047 1.843 2.207 4.9 2.957 7.556 1.869 12.973-5.338 21.078-6.516 25.519-3.707 5.343 3.379 8.464 14.42 9.525 33.756l-.021.449h-133.456c-.391-15.529 2.413-26.126 8.179-30.783zm219.501 118.999h-36.66v-37.553c0-25.815-19.41-47.168-44.406-50.267l.027-.639c.011-.206.011-.407-.011-.607-1.331-25.097-6.019-38.403-15.65-44.486-9.557-6.046-21.839-3.332-33.202.94-8.385-8.707-17.768-13.586-27.367-14.167-9.325-.56-18.407 3.031-26.248 10.402-2.244 2.107-3.749 3.749-4.815 4.958-1.378-.454-3.327-1.093-5.935-1.806-14.156-3.87-25.429-2.54-33.492 3.976-9.314 7.503-13.607 21.063-13.079 41.349-25.324 2.783-45.082 24.294-45.082 50.346v37.553h-36.66c-3.638 0-6.584 2.946-6.584 6.579 0 3.643 2.946 6.584 6.584 6.584h322.581c3.633 0 6.584-2.941 6.584-6.584-.001-3.632-2.952-6.578-6.585-6.578zm-229.344-206.755c0-4.826-3.923-8.749-8.739-8.749-4.831 0-8.755 3.923-8.755 8.749 0 4.821 3.923 8.744 8.755 8.744 4.816 0 8.739-3.924 8.739-8.744zm-30.656 0c0 12.081 9.832 21.913 21.918 21.913 12.076 0 21.907-9.832 21.907-21.913 0-12.086-9.832-21.913-21.907-21.913-12.087 0-21.918 9.826-21.918 21.913zm68.578 29.479c3.036 0 5.513 2.471 5.513 5.513 0 3.041-2.476 5.518-5.513 5.518-3.047 0-5.523-2.476-5.523-5.518s2.477-5.513 5.523-5.513zm0 24.199c10.296 0 18.676-8.385 18.676-18.687 0-10.296-8.38-18.681-18.676-18.681-10.307 0-18.687 8.385-18.687 18.681.001 10.302 8.381 18.687 18.687 18.687zm52.11-50.611c3.047 0 5.513 2.471 5.513 5.518 0 3.036-2.466 5.513-5.513 5.513-3.036 0-5.513-2.477-5.513-5.513.001-3.046 2.477-5.518 5.513-5.518zm0 24.199c10.302 0 18.676-8.385 18.676-18.681 0-10.302-8.374-18.687-18.676-18.687-10.307 0-18.676 8.385-18.676 18.687 0 10.296 8.369 18.681 18.676 18.681z" fill-rule="evenodd"/></svg>